   <svg width="206" height="206" viewBox="0 0 206 206" fill="none" xmlns="http://www.w3.org/2000/svg">
        <circle cx="103" cy="103" r="103" fill="#0038A0"/>
        <path d="M81.8 93.6V139.6C81.8 140.82 81.3154 141.99 80.4527 142.853C79.59 143.715 78.42 144.2 77.2 144.2C75.98 144.2 74.81 143.715 73.9473 142.853C73.0846 141.99 72.6 140.82 72.6 139.6V93.6C72.6 92.38 73.0846 91.21 73.9473 90.3473C74.81 89.4846 75.98 89 77.2 89C78.42 89 79.59 89.4846 80.4527 90.3473C81.3154 91.21 81.8 92.38 81.8 93.6ZM104.8 89C103.58 89 102.41 89.4846 101.547 90.3473C100.685 91.21 100.2 92.38 100.2 93.6V139.6C100.2 140.82 100.685 141.99 101.547 142.853C102.41 143.715 103.58 144.2 104.8 144.2C106.02 144.2 107.19 143.715 108.053 142.853C108.915 141.99 109.4 140.82 109.4 139.6V93.6C109.4 92.38 108.915 91.21 108.053 90.3473C107.19 89.4846 106.02 89 104.8 89ZM160 98.2V135C160 138.66 158.546 142.17 155.958 144.758C153.37 147.346 149.86 148.8 146.2 148.8H137V153.4C137 155.84 136.031 158.18 134.305 159.905C132.58 161.631 130.24 162.6 127.8 162.6H54.2C51.76 162.6 49.42 161.631 47.6946 159.905C45.9693 158.18 45 155.84 45 153.4V75.2C45 57.444 61.5082 43 81.8 43C91.4427 43 100.723 46.335 107.572 52.2H114C120.1 52.2 125.95 54.6232 130.263 58.9365C134.577 63.2499 137 69.1 137 75.2V84.4H146.2C149.86 84.4 153.37 85.8539 155.958 88.4419C158.546 91.0299 160 94.54 160 98.2ZM54.775 70.6H127.006C126.055 67.9101 124.294 65.5811 121.965 63.9336C119.636 62.286 116.853 61.4009 114 61.4H105.801C104.616 61.3999 103.477 60.9426 102.621 60.1235C97.3595 55.075 89.7752 52.2 81.8 52.2C68.4715 52.2 57.3222 60.112 54.775 70.6ZM127.8 153.4V79.8H54.2V153.4H127.8ZM150.8 98.2C150.8 96.98 150.315 95.81 149.453 94.9473C148.59 94.0846 147.42 93.6 146.2 93.6H137V139.6H146.2C147.42 139.6 148.59 139.115 149.453 138.253C150.315 137.39 150.8 136.22 150.8 135V98.2Z" fill="white"/>
      </svg>
