  <svg width="207" height="206" viewBox="0 0 207 206" fill="none" xmlns="http://www.w3.org/2000/svg">
        <circle cx="103.333" cy="103" r="103" fill="#0038A0"/>
        <path d="M160.127 145.15L140.247 50.6318C139.99 49.3958 139.491 48.2227 138.779 47.1801C138.067 46.1374 137.156 45.2456 136.099 44.556C135.041 43.8664 133.858 43.3925 132.617 43.1616C131.376 42.9307 130.101 42.9474 128.866 43.2105L100.828 49.2362C98.3482 49.7792 96.1829 51.2795 94.8032 53.4107C93.4235 55.5419 92.9411 58.1317 93.4609 60.6167L113.341 155.135C113.784 157.291 114.956 159.229 116.66 160.624C118.364 162.018 120.495 162.783 122.697 162.79C123.377 162.789 124.056 162.717 124.721 162.574L152.759 156.548C155.242 156.004 157.41 154.501 158.79 152.366C160.17 150.231 160.65 147.638 160.127 145.15ZM102.835 58.6581C102.835 58.6221 102.835 58.6042 102.835 58.6042L130.867 52.6144L132.861 62.1202L104.829 68.1518L102.835 58.6581ZM106.8 77.5078L134.844 71.4881L136.845 81.0118L108.825 87.0375L106.8 77.5078ZM110.777 96.4174L138.821 90.3917L146.788 128.271L118.744 134.297L110.777 96.4174ZM150.753 147.18L122.721 153.17L120.726 143.665L148.758 137.633L150.753 147.127C150.753 147.163 150.753 147.18 150.753 147.18ZM83.6677 47.7867H54.9169C52.3752 47.7867 49.9376 48.7964 48.1403 50.5937C46.343 52.3909 45.3333 54.8286 45.3333 57.3703V153.206C45.3333 155.748 46.343 158.186 48.1403 159.983C49.9376 161.78 52.3752 162.79 54.9169 162.79H83.6677C86.2094 162.79 88.647 161.78 90.4443 159.983C92.2416 158.186 93.2513 155.748 93.2513 153.206V57.3703C93.2513 54.8286 92.2416 52.3909 90.4443 50.5937C88.647 48.7964 86.2094 47.7867 83.6677 47.7867ZM54.9169 57.3703H83.6677V66.9539H54.9169V57.3703ZM54.9169 76.5375H83.6677V134.039H54.9169V76.5375ZM83.6677 153.206H54.9169V143.623H83.6677V153.206Z" fill="white"/>
      </svg>