      <svg width="207" height="206" viewBox="0 0 207 206" fill="none" xmlns="http://www.w3.org/2000/svg">
        <circle cx="103.667" cy="103" r="103" fill="#0038A0"/>
        <path d="M141.5 46H64.8333C59.75 46 54.8749 48.0193 51.2804 51.6138C47.686 55.2082 45.6666 60.0834 45.6666 65.1667V141.833C45.6666 146.917 47.686 151.792 51.2804 155.386C54.8749 158.981 59.75 161 64.8333 161H141.5C146.583 161 151.458 158.981 155.053 155.386C158.647 151.792 160.667 146.917 160.667 141.833V65.1667C160.667 60.0834 158.647 55.2082 155.053 51.6138C151.458 48.0193 146.583 46 141.5 46ZM151.083 141.833C151.083 144.375 150.074 146.813 148.276 148.61C146.479 150.407 144.042 151.417 141.5 151.417H64.8333C62.2916 151.417 59.8541 150.407 58.0569 148.61C56.2596 146.813 55.25 144.375 55.25 141.833V65.1667C55.25 62.625 56.2596 60.1874 58.0569 58.3902C59.8541 56.593 62.2916 55.5833 64.8333 55.5833H141.5C144.042 55.5833 146.479 56.593 148.276 58.3902C150.074 60.1874 151.083 62.625 151.083 65.1667V141.833ZM88.7916 77.1458C88.7916 78.5674 88.3701 79.957 87.5803 81.139C86.7905 82.321 85.668 83.2422 84.3547 83.7862C83.0413 84.3302 81.5961 84.4726 80.2019 84.1952C78.8077 83.9179 77.527 83.2334 76.5218 82.2282C75.5166 81.223 74.8321 79.9423 74.5547 78.548C74.2774 77.1538 74.4197 75.7086 74.9637 74.3953C75.5077 73.082 76.429 71.9594 77.611 71.1696C78.7929 70.3799 80.1826 69.9583 81.6041 69.9583C83.5104 69.9583 85.3385 70.7156 86.6865 72.0635C88.0344 73.4114 88.7916 75.2396 88.7916 77.1458ZM131.917 77.1458C131.917 78.5674 131.495 79.957 130.705 81.139C129.916 82.321 128.793 83.2422 127.48 83.7862C126.166 84.3302 124.721 84.4726 123.327 84.1952C121.933 83.9179 120.652 83.2334 119.647 82.2282C118.642 81.223 117.957 79.9423 117.68 78.548C117.402 77.1538 117.545 75.7086 118.089 74.3953C118.633 73.082 119.554 71.9594 120.736 71.1696C121.918 70.3799 123.308 69.9583 124.729 69.9583C126.635 69.9583 128.464 70.7156 129.811 72.0635C131.159 73.4114 131.917 75.2396 131.917 77.1458ZM88.7916 103.5C88.7916 104.922 88.3701 106.311 87.5803 107.493C86.7905 108.675 85.668 109.596 84.3547 110.14C83.0413 110.684 81.5961 110.827 80.2019 110.549C78.8077 110.272 77.527 109.588 76.5218 108.582C75.5166 107.577 74.8321 106.296 74.5547 104.902C74.2774 103.508 74.4197 102.063 74.9637 100.749C75.5077 99.4361 76.429 98.3136 77.611 97.5238C78.7929 96.734 80.1826 96.3125 81.6041 96.3125C83.5104 96.3125 85.3385 97.0697 86.6865 98.4177C88.0344 99.7656 88.7916 101.594 88.7916 103.5ZM131.917 103.5C131.917 104.922 131.495 106.311 130.705 107.493C129.916 108.675 128.793 109.596 127.48 110.14C126.166 110.684 124.721 110.827 123.327 110.549C121.933 110.272 120.652 109.588 119.647 108.582C118.642 107.577 117.957 106.296 117.68 104.902C117.402 103.508 117.545 102.063 118.089 100.749C118.633 99.4361 119.554 98.3136 120.736 97.5238C121.918 96.734 123.308 96.3125 124.729 96.3125C126.635 96.3125 128.464 97.0697 129.811 98.4177C131.159 99.7656 131.917 101.594 131.917 103.5ZM88.7916 129.854C88.7916 131.276 88.3701 132.665 87.5803 133.847C86.7905 135.029 85.668 135.951 84.3547 136.495C83.0413 137.039 81.5961 137.181 80.2019 136.904C78.8077 136.626 77.527 135.942 76.5218 134.936C75.5166 133.931 74.8321 132.651 74.5547 131.256C74.2774 129.862 74.4197 128.417 74.9637 127.104C75.5077 125.79 76.429 124.668 77.611 123.878C78.7929 123.088 80.1826 122.667 81.6041 122.667C83.5104 122.667 85.3385 123.424 86.6865 124.772C88.0344 126.12 88.7916 127.948 88.7916 129.854ZM131.917 129.854C131.917 131.276 131.495 132.665 130.705 133.847C129.916 135.029 128.793 135.951 127.48 136.495C126.166 137.039 124.721 137.181 123.327 136.904C121.933 136.626 120.652 135.942 119.647 134.936C118.642 133.931 117.957 132.651 117.68 131.256C117.402 129.862 117.545 128.417 118.089 127.104C118.633 125.79 119.554 124.668 120.736 123.878C121.918 123.088 123.308 122.667 124.729 122.667C126.635 122.667 128.464 123.424 129.811 124.772C131.159 126.12 131.917 127.948 131.917 129.854Z" fill="white"/>
      </svg>
