<svg width="169" height="196" viewBox="0 0 169 196" fill="none" xmlns="http://www.w3.org/2000/svg">
  <g clip-path="url(#clip0_1_27)">
    <path d="M51.276 0.0196068V21.2795C55.8024 22.8219 59.3914 26.3958 60.9587 30.9213L166.661 30.9859C163.301 21.122 156.544 12.3601 147.776 6.84681C143.661 4.25891 137.827 1.90798 132.993 0.889006C127.964 -0.170958 125.376 -0.22285 82.2677 -0.117606C64.7721 -0.074864 57.3687 -0.0392404 51.276 0.0196068ZM168.771 40.5262H61.1588C59.7133 45.3427 56.0071 49.1772 51.276 50.7884V93.382C53.5233 94.1026 55.5507 95.382 57.3566 97.2275C60.3335 100.255 61.8224 103.879 61.8224 108.097C61.8224 112.388 60.3271 116.033 57.3359 119.032C55.5793 120.793 53.5941 122.021 51.3933 122.748V154.692C60.5643 154.733 72.9003 154.754 87.6271 154.74L98.2483 154.73C104.53 169.012 96.0819 182.368 91.6824 195.978C106.652 184.972 121.841 177.928 136.136 154.695L138.735 154.097C154.47 150.479 165.461 139.189 168.604 123.412C169.016 121.345 169.069 117.58 169.16 83.7806C169.238 54.8231 168.771 40.5262 168.771 40.5262ZM41.7946 122.853C39.4768 122.139 37.3923 120.862 35.545 119.01C32.5394 115.996 31.0366 112.359 31.0366 108.097C31.0366 103.793 32.5469 100.148 35.5668 97.1629C37.3664 95.3928 39.4045 94.1531 41.6773 93.4328V50.906C36.7585 49.3774 32.8819 45.4755 31.3966 40.5262H0.539423C0.49732 40.8831 0.437317 41.2395 0.403712 41.5963C0.037329 45.4861 0.0321354 113.425 0.397817 116.964C1.15183 124.26 3.28204 130.266 7.20871 136.169C13.998 146.377 25.0212 153.179 36.9756 154.541C37.1669 154.563 40.6546 154.573 41.7944 154.592L41.7946 122.853ZM2.69356 30.9202H31.5967C33.2095 26.2636 36.9644 22.6181 41.6773 21.1539V10.6657V0.177575C39.8281 0.268047 38.6561 0.383114 37.6772 0.571918C27.5985 2.51598 18.4293 7.60874 11.8828 14.8963C10.7713 16.1337 9.78094 17.3266 9.6827 17.5483C9.58446 17.7699 8.83095 18.9189 8.00816 20.1011C5.81393 23.2539 4.0172 26.9668 2.69356 30.9202ZM68.685 46.4714C71.9912 46.4714 74.5169 47.4475 76.263 49.399C78.0234 51.3504 78.9036 54.1561 78.9036 57.8151V76.5833H70.1871V57.8151C70.1871 56.0214 69.5505 55.1239 68.2767 55.1239C67.0459 55.1239 66.4308 56.0214 66.4308 57.8151V76.5833H57.7142V57.513C57.7142 54.1696 58.7082 51.4943 60.6976 49.4854C62.7013 47.4766 65.3646 46.4714 68.685 46.4714ZM84.2067 47.2036H95.5628C100.544 47.2036 104.444 48.3367 107.264 50.6039C110.613 53.3159 112.288 56.9964 112.288 61.6455C112.288 66.0937 110.856 69.7248 107.993 72.5372C105.131 75.3496 101.446 76.7551 96.9372 76.7551C96.4076 76.7551 95.5414 76.7271 94.3391 76.6697V68.038H95.7353C100.816 68.038 103.356 65.9072 103.356 61.6455C103.356 57.6421 100.859 55.6404 95.8641 55.6404H92.9222V76.5833H84.2067V47.2036ZM111.686 47.2036H120.531L124.31 53.2513L128.367 47.2036H137.04L128.753 60.2688V76.5833H120.037V60.2688L111.686 47.2036ZM24.8318 92.6868C26.034 92.6868 27.2148 92.8869 28.3741 93.2886V101.662C27.7443 101.447 27.2581 101.339 26.9146 101.339C26.2563 101.339 25.6905 101.582 25.2182 102.07C24.7459 102.558 24.5098 103.147 24.5098 103.836C24.5098 104.424 24.7674 105.17 25.2826 106.074L25.9485 107.236C27.1508 109.331 27.7519 111.354 27.7519 113.306C27.7519 116.161 26.7353 118.579 24.703 120.559C22.6849 122.54 20.2161 123.53 17.2964 123.53C15.8937 123.53 14.5058 123.207 13.1318 122.561V114.06C13.962 114.591 14.6983 114.855 15.3423 114.855C16.1009 114.855 16.731 114.64 17.2319 114.21C17.7472 113.765 18.0048 113.213 18.0048 112.553C18.0048 112.122 17.5969 111.183 16.7811 109.733C15.4787 107.438 14.8271 105.141 14.8271 102.845C14.8271 100.076 15.8082 97.6942 17.769 95.6997C19.7442 93.6908 22.0981 92.6868 24.8318 92.6868ZM79.7271 92.6868C84.0494 92.6868 87.6561 94.1504 90.5472 97.0776C92.551 99.1008 93.9679 101.92 94.798 105.536L85.4592 106.16C84.4144 102.946 82.4318 101.339 79.5121 101.339C77.6514 101.339 76.1133 101.985 74.8967 103.276C73.6945 104.568 73.0933 106.21 73.0933 108.204C73.0933 110.127 73.6869 111.72 74.8749 112.983C76.0628 114.231 77.5656 114.855 79.3832 114.855C81.2295 114.855 82.6969 114.303 83.7847 113.198C84.8867 112.093 85.5383 110.508 85.7387 108.442L94.8624 108.678C94.2613 113.414 92.6222 117.073 89.9457 119.655C87.2836 122.238 83.8058 123.53 79.5121 123.53C75.1468 123.53 71.4908 122.066 68.5424 119.139C65.6084 116.197 64.141 112.552 64.141 108.204C64.141 103.828 65.6362 100.148 68.6275 97.1629C71.6331 94.1783 75.3332 92.6868 79.7271 92.6868ZM124.209 92.6868C127.644 92.6868 130.185 93.5971 131.831 95.4195C133.477 97.2275 134.3 100.026 134.3 103.814V122.797H125.584V104.395C125.584 103.247 125.447 102.451 125.176 102.006C124.904 101.561 124.417 101.339 123.716 101.339C122.356 101.339 121.677 102.357 121.677 104.395V108.055H124.189V115.803H121.677V122.797H112.96V104.116C112.96 100.5 113.94 97.6942 115.901 95.6997C117.876 93.6908 120.646 92.6868 124.209 92.6868ZM98.9844 93.4178H107.701V122.797H98.9844V93.4178ZM138.98 93.4178H147.697V110.874C147.697 112.237 147.911 113.149 148.341 113.608C148.784 114.053 149.65 114.274 150.938 114.274H151.389V122.797H149.07C145.893 122.797 143.417 121.872 141.643 120.021C139.868 118.156 138.98 115.573 138.98 112.272V93.4178ZM46.4295 101.339C44.6404 101.339 43.1162 101.999 41.8567 103.319C40.5972 104.639 39.9671 106.232 39.9671 108.097C39.9671 109.963 40.5972 111.555 41.8567 112.875C43.1305 114.196 44.6547 114.855 46.4295 114.855C48.2328 114.855 49.7571 114.203 51.0023 112.897C52.2618 111.577 52.8919 109.977 52.8919 108.097C52.8919 106.218 52.2618 104.625 51.0023 103.319C49.7571 101.999 48.2328 101.339 46.4295 101.339Z" fill="white"/>
    <path fill-rule="evenodd" clip-rule="evenodd" d="M46.3559 25.2333C40.4504 25.2333 35.6623 30.0337 35.6623 35.9544C35.6623 41.8751 40.4504 46.6743 46.3559 46.6743C52.2614 46.6743 57.0483 41.8751 57.0483 35.9544C57.0483 30.0337 52.2614 25.2333 46.3559 25.2333ZM46.311 27.4876L48.2524 33.277H54.5342L49.4519 36.8549L51.3933 42.6432L46.311 39.0665L41.2276 42.6432L43.1701 36.8538L38.0866 33.277H44.3685L46.311 27.4876Z" fill="white"/>
  </g>
  <defs>
    <clipPath id="clip0_1_27">
      <rect width="169" height="196" fill="white"/>
    </clipPath>
  </defs>
</svg>