    <svg width="206" height="206" viewBox="0 0 206 206" fill="none" xmlns="http://www.w3.org/2000/svg">
        <circle cx="103" cy="103" r="103" fill="#0038A0"/>
        <path d="M155.74 149.521H129.856C141.141 142.388 149.479 131.407 153.336 118.597C157.194 105.788 156.312 92.012 150.853 79.803C145.394 67.5941 135.725 57.7733 123.624 52.1472C111.523 46.521 97.8037 45.4678 84.9905 49.1813C72.1772 52.8948 61.1312 61.1253 53.8842 72.3588C46.6373 83.5923 43.6767 97.0734 45.5471 110.322C47.4176 123.571 53.9932 135.697 64.0644 144.47C74.1357 153.242 87.0253 158.071 100.362 158.068H155.74C156.87 158.068 157.953 157.618 158.752 156.817C159.551 156.015 160 154.928 160 153.794C160 152.661 159.551 151.574 158.752 150.772C157.953 149.971 156.87 149.521 155.74 149.521ZM100.362 55.4944C108.576 55.4854 116.646 57.6547 123.754 61.7824C118.621 64.1114 113.66 66.8055 108.909 69.8441C101.389 65.0329 93.3504 61.0901 84.9473 58.0908C89.9033 56.3608 95.115 55.483 100.362 55.4944ZM74.0368 63.6362C83.5848 66.2287 92.7394 70.105 101.252 75.1598C97.6141 77.9066 94.135 80.8586 90.8311 84.0014C82.089 79.334 72.684 76.0421 62.9453 74.2409C66.0423 70.1237 69.7888 66.5417 74.0368 63.6362ZM58.1476 82.1102C67.3434 83.4586 76.2693 86.255 84.5958 90.3963C81.639 93.6565 78.8607 97.0753 76.2732 100.638C69.2629 97.4806 61.8158 95.4091 54.186 94.4939C54.925 90.201 56.2584 86.0327 58.1476 82.1102ZM53.5044 103.042C59.6664 103.806 65.6929 105.424 71.4117 107.85C67.3746 114.353 63.974 121.232 61.2573 128.391C56.2887 120.869 53.5961 112.065 53.5044 103.042ZM67.5725 136.063C72.6869 120.668 81.079 106.574 92.1662 94.7594C103.253 82.9446 116.77 73.6917 131.779 67.643C135.141 70.6955 138.05 74.2164 140.415 78.0981C125.579 83.3056 112.21 92.0201 101.439 103.505C90.6676 114.99 82.8102 128.908 78.5309 144.082C74.5139 141.952 70.8248 139.251 67.5778 136.063H67.5725ZM99.1165 149.521C94.8088 149.399 90.5386 148.68 86.4275 147.384C90.2674 133.152 97.546 120.089 107.619 109.353C117.691 98.6171 130.247 90.5389 144.175 85.8339C145.706 89.8743 146.67 94.1086 147.039 98.4152C135.598 102.533 125.29 109.311 116.961 118.193C108.631 127.076 102.516 137.811 99.1165 149.521ZM146.944 107.615C145.825 117.771 141.446 127.287 134.466 134.728C127.486 142.169 118.285 147.132 108.248 148.869C111.404 139.625 116.487 131.163 123.16 124.047C129.832 116.93 137.94 111.323 146.944 107.599V107.615Z" fill="white"/>
      </svg>
